dummy_motion.mot																				
nRows=54																				
nColumns=21																				
name dummy_motion.mot																				
datacolumns 21																				
datarows 54																				
range 0.01 0.54																				
endheader																				
time	pelvis_tilt	pelvis_tx	pelvis_ty	hip_flexion_r	hip_adduction_r	hip_rotation_r	knee_angle_r	ankle_angle_r	hip_flexion_l	hip_adduction_l	hip_rotation_l	knee_angle_l	ankle_angle_l	lumbar_extension	lumbar_bending	lumbar_rotation	subtalar_angle_r	subtalar_angle_l	mtp_angle_r	mtp_angle_l
0.01	0	0	0	89.5971984	-3.826533866	9.21163969	-3.949765978	30.61523652	89.5971984	-3.826533866	9.21163969	-3.949765978	30.61523652	-38.55866061	-5.73980081	13.81745956	28.32513178	28.32513178	1.821597994	1.821597994
0.02	0	0	0	21.87638426	-29.91042731	9.942079703	-77.93625245	-10.77565961	21.87638426	-29.91042731	9.942079703	-77.93625245	-10.77565961	77.62482954	-44.86564106	14.91311958	36.52127434	36.52127434	42.16166228	42.16166228
0.03	0	0	0	-64.89486587	-16.83132949	0.206065013	-3.229293667	-17.79694265	-64.89486587	-16.83132949	0.206065013	-3.229293667	-17.79694265	53.97331099	-25.24699428	0.309097521	-33.57118653	-33.57118653	23.39940461	23.39940461
0.04	0	0	0	-38.32815126	-6.714610866	-28.11409683	-29.92587161	33.23928075	-38.32815126	-6.714610866	-28.11409683	-29.92587161	33.23928075	-30.40654758	-10.07191632	-42.17114533	37.20382705	37.20382705	35.74111788	35.74111788
0.05	0	0	0	29.62624503	13.46123915	15.80071872	-80.73366153	22.78228857	29.62624503	13.46123915	15.80071872	-80.73366153	22.78228857	42.73551188	20.19185877	23.70107814	11.91233216	11.91233216	57.66031531	57.66031531
0.06	0	0	0	88.69656658	16.02610969	17.21047032	-63.54266921	-33.97965225	88.69656658	16.02610969	17.21047032	-63.54266921	-33.97965225	12.13917912	24.03916458	25.81570554	-36.22136355	-36.22136355	11.91192418	11.91192418
0.07	0	0	0	-48.30717561	-15.5586864	19.43565533	-38.04625568	-10.52398507	-48.30717561	-15.5586864	19.43565533	-38.04625568	-10.52398507	-87.10854009	-23.33802965	29.15348306	-19.9351603	-19.9351603	-4.649237953	-4.649237953
0.08	0	0	0	19.58543991	-27.87127491	-7.029236149	0.963149366	34.52648316	19.58543991	-27.87127491	-7.029236149	0.963149366	34.52648316	-13.40738014	-41.80691245	-10.54385424	4.219336728	4.219336728	45.39906029	45.39906029
0.09	0	0	0	72.09436981	27.13796116	-8.783572811	1.664410844	2.414003986	72.09436981	27.13796116	-8.783572811	1.664410844	2.414003986	-84.71188187	40.70694182	-13.17535924	41.17561519	41.17561519	15.57687855	15.57687855
0.1	0	0	0	-40.17759694	1.829052599	-10.16890424	-75.02675724	38.11898301	-40.17759694	1.829052599	-10.16890424	-75.02675724	38.11898301	51.15179904	2.743578904	-15.25335639	41.83996817	41.83996817	30.95695725	30.95695725
0.11	0	0	0	-18.69313212	-20.37481509	12.14701038	2.206314267	28.57833491	-18.69313212	-20.37481509	12.14701038	2.206314267	28.57833491	86.54667108	-30.5622227	18.22051561	-30.81482265	-30.81482265	2.833569433	2.833569433
0.12	0	0	0	-61.33991736	-8.234813388	-6.966333215	0.930860083	-13.71612197	-61.33991736	-8.234813388	-6.966333215	0.930860083	-13.71612197	34.18995476	-12.35222011	-10.44949984	42.35335036	42.35335036	-4.615674043	-4.615674043
0.13	0	0	0	-34.41627548	-13.34317919	-28.13187711	-43.88931337	-23.23823897	-34.41627548	-13.34317919	-28.13187711	-43.88931337	-23.23823897	50.34336815	-20.01476882	-42.19781575	41.14502534	41.14502534	0.756393657	0.756393657
0.14	0	0	0	24.67037623	4.842222607	-2.601467453	-13.97335546	-49.37096538	24.67037623	4.842222607	-2.601467453	-13.97335546	-49.37096538	17.63613185	7.263333926	-3.902201188	-1.316191615	-1.316191615	47.88131931	47.88131931
0.15	0	0	0	0.287582792	8.451955259	-13.23508698	-76.52079783	33.48109595	0.287582792	8.451955259	-13.23508698	-76.52079783	33.48109595	-38.77029697	12.67793291	-19.85263051	27.0252422	27.0252422	11.06697198	11.06697198
0.16	0	0	0	12.7047425	-22.86678189	-9.823279775	-49.93267815	28.32402669	12.7047425	-22.86678189	-9.823279775	-49.93267815	28.32402669	44.32586716	-34.30017291	-14.73491969	-32.23022952	-32.23022952	16.8719143	16.8719143
0.17	0	0	0	-20.41263232	-28.12246094	-26.86896193	-3.005125107	39.55518702	-20.41263232	-28.12246094	-26.86896193	-3.005125107	39.55518702	34.89736466	-42.1836915	-40.30344298	-7.041484564	-7.041484564	35.55242631	35.55242631
0.18	0	0	0	-15.48692801	-1.149946919	2.399133452	-14.74030369	-18.78490231	-15.48692801	-1.149946919	2.399133452	-14.74030369	-18.78490231	-10.34583347	-1.724920381	3.598700185	37.41619727	37.41619727	47.21593668	47.21593668
0.19	0	0	0	26.23773082	-20.75380189	-7.14380221	1.151780507	2.91962256	26.23773082	-20.75380189	-7.14380221	1.151780507	2.91962256	-14.55690456	-31.1307029	-10.71570334	26.29865966	26.29865966	43.63863536	43.63863536
0.2	0	0	0	-21.29164726	25.59602673	29.90638092	-27.70463358	38.16248574	-21.29164726	25.59602673	29.90638092	-27.70463358	38.16248574	-62.86115255	38.39404017	44.85957148	41.35431838	41.35431838	16.19228903	16.19228903
0.21	0	0	0	48.26672531	-5.266266461	1.777188224	-86.60739054	-38.78060507	48.26672531	-5.266266461	1.777188224	-86.60739054	-38.78060507	7.252564507	-7.899399708	2.665782342	14.01666292	14.01666292	3.290373446	3.290373446
0.22	0	0	0	80.37592188	-5.769361197	23.18636097	-9.332715942	-5.386573187	80.37592188	-5.769361197	23.18636097	-9.332715942	-5.386573187	-54.65515217	-8.654041814	34.77954153	-41.78594893	-41.78594893	35.25512287	35.25512287
0.23	0	0	0	-30.95069711	-20.80963277	18.93438406	-1.270641463	-10.07526287	-30.95069711	-20.80963277	18.93438406	-1.270641463	-10.07526287	44.85288098	-31.21444922	28.40157614	31.42163753	31.42163753	-9.747628684	-9.747628684
0.24	0	0	0	41.0766952	22.50398251	-10.51859698	-25.52016029	18.90791864	41.0766952	22.50398251	-10.51859698	-25.52016029	18.90791864	38.81884463	33.75597383	-15.77789551	39.0593923	39.0593923	9.802153374	9.802153374
0.25	0	0	0	-64.41253046	22.640134	-14.03021332	-18.0146876	-22.10369769	-64.41253046	22.640134	-14.03021332	-18.0146876	-22.10369769	36.8094679	33.96020108	-21.04532003	16.08616394	16.08616394	34.70204163	34.70204163
0.26	0	0	0	-42.6474324	-24.4293183	-13.33129304	-19.40241553	26.48713931	-42.6474324	-24.4293183	-13.33129304	-19.40241553	26.48713931	42.53172365	-36.64397753	-19.99693959	23.19661175	23.19661175	31.44522057	31.44522057
0.27	0	0	0	3.244774384	-10.04445467	15.26653323	-52.73843314	32.63296173	3.244774384	-10.04445467	15.26653323	-52.73843314	32.63296173	28.20368612	-15.06668204	22.89979989	21.88192213	21.88192213	12.77024433	12.77024433
0.28	0	0	0	-53.3043389	11.60951198	28.73550988	-27.72960043	-31.79119614	-53.3043389	11.60951198	28.73550988	-27.72960043	-31.79119614	70.39730658	17.41426801	43.1032649	-9.699568242	-9.699568242	59.22658759	59.22658759
0.29	0	0	0	83.61713741	-19.74625395	8.547603724	-73.73726466	-21.67950524	83.61713741	-19.74625395	8.547603724	-73.73726466	-21.67950524	-1.605688219	-29.61938098	12.82140561	13.99301012	13.99301012	-1.373490761	-1.373490761
0.3	0	0	0	-54.75860297	-9.244650251	21.13453045	-22.92562164	34.84910619	-54.75860297	-9.244650251	21.13453045	-22.92562164	34.84910619	-28.48010266	-13.8669754	31.70179574	-29.5931981	-29.5931981	41.51138905	41.51138905
0.31	0	0	0	11.5303553	-8.095741977	21.31436746	-86.97587959	-40.57316918	11.5303553	-8.095741977	21.31436746	-86.97587959	-40.57316918	83.28757293	-12.14361299	31.97155125	18.54414792	18.54414792	0.963191408	0.963191408
0.32	0	0	0	64.08404937	-9.500380301	3.531500006	-63.69231643	23.15763904	64.08404937	-9.500380301	3.531500006	-63.69231643	23.15763904	-67.51002236	-14.25057048	5.29725002	-42.13504383	-42.13504383	20.4253188	20.4253188
0.33	0	0	0	71.22509079	24.92326273	-14.8146304	-85.61371789	32.45983793	71.22509079	24.92326273	-14.8146304	-85.61371789	32.45983793	-52.44979314	37.38489418	-22.22194565	-20.07693135	-20.07693135	48.25702527	48.25702527
0.34	0	0	0	80.22396064	-19.72717537	-7.402139864	-80.77248078	-25.27540505	80.22396064	-19.72717537	-7.402139864	-80.77248078	-25.27540505	-62.10536932	-29.59076311	-11.10320982	-40.84457484	-40.84457484	15.1936693	15.1936693
0.35	0	0	0	-41.98335841	-18.39759534	2.702585144	-11.77150631	38.38543277	-41.98335841	-18.39759534	2.702585144	-11.77150631	38.38543277	55.36887592	-27.59639306	4.053877725	-36.25813969	-36.25813969	-4.663336672	-4.663336672
0.36	0	0	0	70.20058987	27.97269774	-27.31089021	-23.99128082	27.97251463	70.20058987	27.97269774	-27.31089021	-23.99128082	27.97251463	-77.87401681	41.9590467	-40.9663354	29.11120455	29.11120455	28.9847882	28.9847882
0.37	0	0	0	76.23643254	-2.33763274	-9.918469622	-59.87554939	-42.19310509	76.23643254	-2.33763274	-9.918469622	-59.87554939	-42.19310509	-1.691428016	-3.506449117	-14.87770446	17.53457607	17.53457607	9.175115696	9.175115696
0.38	0	0	0	-53.79665855	14.09269693	18.15482014	0.27109464	35.85473352	-53.79665855	14.09269693	18.15482014	0.27109464	35.85473352	17.71527163	21.13904543	27.23223026	-16.46104679	-16.46104679	-0.756172448	-0.756172448
0.39	0	0	0	-63.98641639	-24.79227914	-0.386119092	-86.72762235	-29.50019502	-63.98641639	-24.79227914	-0.386119092	-86.72762235	-29.50019502	-24.29636887	-37.18841878	-0.579178639	40.5199844	40.5199844	38.97583943	38.97583943
0.4	0	0	0	-52.07926479	-17.07987233	-14.47198524	-48.31928583	23.2669068	-52.07926479	-17.07987233	-14.47198524	-48.31928583	23.2669068	33.94060406	-25.61980854	-21.7079779	-41.89985275	-41.89985275	24.01334353	24.01334353
0.41	0	0	0	-69.56054791	4.234194734	-12.91926336	-53.75194658	-28.41879771	-69.56054791	4.234194734	-12.91926336	-53.75194658	-28.41879771	64.24328629	6.351292114	-19.37889508	-5.513007631	-5.513007631	2.790137557	2.790137557
0.42	0	0	0	12.52481783	-10.5860351	19.01540041	-17.27590513	-1.864685899	12.52481783	-10.5860351	19.01540041	-17.27590513	-1.864685899	72.11492444	-15.87905268	28.52310067	-10.65973886	-10.65973886	-2.914982327	-2.914982327
0.43	0	0	0	-43.13551354	27.43547049	5.48057733	-14.45600939	7.487610182	-43.13551354	27.43547049	5.48057733	-14.45600939	7.487610182	81.26919793	41.15320581	8.220866012	23.89651093	23.89651093	4.110902907	4.110902907
0.44	0	0	0	54.63910567	5.423609899	-6.368039789	-72.24710257	18.55786547	54.63910567	5.423609899	-6.368039789	-72.24710257	18.55786547	72.00842846	8.135414865	-9.552059703	26.5679911	26.5679911	-0.567779248	-0.567779248
0.45	0	0	0	64.70640852	-22.79149128	-23.34542994	-43.4723824	-28.15467011	64.70640852	-22.79149128	-23.34542994	-43.4723824	-28.15467011	-88.82335339	-34.18723699	-35.01814499	-28.18146559	-28.18146559	12.66524078	12.66524078
0.46	0	0	0	-61.0101077	-13.39689621	29.78923109	-47.66931093	-38.01708317	-61.0101077	-13.39689621	29.78923109	-47.66931093	-38.01708317	-82.45220359	-20.09534435	44.68384672	-0.921204379	-0.921204379	56.53815337	56.53815337
0.47	0	0	0	6.56394414	-21.26009433	-29.68198367	-28.60026404	1.182686526	6.56394414	-21.26009433	-29.68198367	-28.60026404	1.182686526	66.76059206	-31.89014155	-44.5229756	-4.897241936	-4.897241936	27.24913924	27.24913924
0.48	0	0	0	62.98540922	13.14838508	-14.9086459	-22.61034107	-48.99701866	62.98540922	13.14838508	-14.9086459	-22.61034107	-48.99701866	-10.00789532	19.72257767	-22.36296889	13.16817091	13.16817091	7.337999695	7.337999695
0.49	0	0	0	24.97861956	15.30873222	10.22121439	-18.30476521	-25.97485876	24.97861956	15.30873222	10.22121439	-18.30476521	-25.97485876	-10.34270417	22.96309838	15.33182162	18.84283478	18.84283478	20.60933772	20.60933772
0.5	0	0	0	79.9570577	20.87556896	7.27139363	-63.77761769	-38.43637169	79.9570577	20.87556896	7.27139363	-63.77761769	-38.43637169	-30.49224831	31.31335351	10.90709047	22.92180138	22.92180138	36.83614482	36.83614482
0.51	0	0	0	41.47856666	-20.34740586	-4.680913545	-25.4282457	3.680211826	41.47856666	-20.34740586	-4.680913545	-25.4282457	3.680211826	79.14115928	-30.52110885	-7.021370331	-20.15774307	-20.15774307	28.33869977	28.33869977
0.52	0	0	0	35.15581216	-4.38418288	7.816451798	-27.76568962	11.60731072	35.15581216	-4.38418288	7.816451798	-27.76568962	11.60731072	38.31142729	-6.576274334	11.72467772	16.17324092	16.17324092	32.6338146	32.6338146
0.53	0	0	0	-3.194685762	18.09943453	-27.63933573	-74.55188516	35.19625919	-3.194685762	18.09943453	-27.63933573	-74.55188516	35.19625919	79.00326399	27.14915185	-41.45900369	13.95882036	13.95882036	50.41943322	50.41943322
0.54	0	0	0	24.84568867	-17.61692811	-3.242501794	-78.69522025	-48.17865349	24.84568867	-17.61692811	-3.242501794	-78.69522025	-48.17865349	5.572069275	-26.42539222	-4.863752701	-30.36494383	-30.36494383	16.64871649	16.64871649
